<svg xmlns="http://www.w3.org/2000/svg" width="318.1" height="316.4" viewBox="0 0 318.1 316.4">
    <path id="Path_1" data-name="Path 1" d="M-269.5-36.4a18.459,18.459,0,0,1,9.4,6.35,17.505,17.505,0,0,1,3.4,10.95q0,9.2-7.15,14.15T-284.7,0h-36.2V-70h34.2q12.8,0,19.65,4.9a15.509,15.509,0,0,1,6.85,13.3,17.069,17.069,0,0,1-2.45,9.1A17.16,17.16,0,0,1-269.5-36.4Zm-35.3-21.4v16.5h16.1q6,0,9.1-2.1a7,7,0,0,0,3.1-6.2,6.881,6.881,0,0,0-3.1-6.15q-3.1-2.05-9.1-2.05Zm18.9,45.6q6.4,0,9.65-2.1A7.192,7.192,0,0,0-273-20.8q0-8.7-12.9-8.7h-18.9v17.3ZM-244.4-70h16.2V0h-16.2ZM-167,0l-13.5-19.5h-14.9V0h-16.2V-70h30.3a38.887,38.887,0,0,1,16.15,3.1,23.994,23.994,0,0,1,10.55,8.8,24.243,24.243,0,0,1,3.7,13.5,23.759,23.759,0,0,1-3.75,13.45A23.768,23.768,0,0,1-165.3-22.5L-149.6,0Zm-.3-44.6q0-5.9-3.8-9.05t-11.1-3.15h-13.2v24.4h13.2q7.3,0,11.1-3.2T-167.3-44.6ZM-138.1-70h31.8a44.692,44.692,0,0,1,20.15,4.35A32.57,32.57,0,0,1-72.55-53.4,34.456,34.456,0,0,1-67.7-35a34.456,34.456,0,0,1-4.85,18.4A32.57,32.57,0,0,1-86.15-4.35,44.692,44.692,0,0,1-106.3,0h-31.8Zm31,56.7q10.5,0,16.75-5.85T-84.1-35q0-10-6.25-15.85T-107.1-56.7h-14.8v43.4ZM-32.5,1.2A57.273,57.273,0,0,1-48.55-1.05,37.642,37.642,0,0,1-61-6.9l5.5-12.2a37.323,37.323,0,0,0,10.7,5.3,40.19,40.19,0,0,0,12.4,2q6.9,0,10.2-2.05a6.193,6.193,0,0,0,3.3-5.45,5.209,5.209,0,0,0-1.95-4.15,14.783,14.783,0,0,0-5-2.65q-3.05-1-8.25-2.2a114.044,114.044,0,0,1-13.1-3.8,21.284,21.284,0,0,1-8.75-6.1q-3.65-4.2-3.65-11.2a19.483,19.483,0,0,1,3.3-11.05,22.2,22.2,0,0,1,9.95-7.85A40.6,40.6,0,0,1-30.1-71.2,53.807,53.807,0,0,1-17-69.6,38.7,38.7,0,0,1-5.8-65l-5,12.3a39.031,39.031,0,0,0-19.4-5.5q-6.8,0-10.05,2.2a6.715,6.715,0,0,0-3.25,5.8q0,3.6,3.75,5.35A58.877,58.877,0,0,0-28.3-41.4a114.045,114.045,0,0,1,13.1,3.8,21.693,21.693,0,0,1,8.75,6Q-2.8-27.5-2.8-20.5A19.114,19.114,0,0,1-6.15-9.55,22.507,22.507,0,0,1-16.2-1.7,40.97,40.97,0,0,1-32.5,1.2Zm-90.5,122a40.858,40.858,0,0,1-19.65-4.7,34.883,34.883,0,0,1-13.7-12.95A35.353,35.353,0,0,1-161.3,87a35.353,35.353,0,0,1,4.95-18.55,34.883,34.883,0,0,1,13.7-12.95A40.858,40.858,0,0,1-123,50.8a40.568,40.568,0,0,1,19.6,4.7A35.335,35.335,0,0,1-89.7,68.45,35.083,35.083,0,0,1-84.7,87a35.083,35.083,0,0,1-5,18.55,35.335,35.335,0,0,1-13.7,12.95A40.568,40.568,0,0,1-123,123.2Zm0-13.8a22.213,22.213,0,0,0,11.2-2.85,20.452,20.452,0,0,0,7.85-7.95A23.37,23.37,0,0,0-101.1,87a23.37,23.37,0,0,0-2.85-11.6,20.452,20.452,0,0,0-7.85-7.95A22.213,22.213,0,0,0-123,64.6a22.213,22.213,0,0,0-11.2,2.85,20.452,20.452,0,0,0-7.85,7.95A23.37,23.37,0,0,0-144.9,87a23.37,23.37,0,0,0,2.85,11.6,20.452,20.452,0,0,0,7.85,7.95A22.213,22.213,0,0,0-123,109.4ZM-8.3,52v70H-21.6L-56.5,79.5V122h-16V52h13.4l34.8,42.5V52ZM-254.5,207.6a18.459,18.459,0,0,1,9.4,6.35,17.505,17.505,0,0,1,3.4,10.95q0,9.2-7.15,14.15T-269.7,244h-36.2V174h34.2q12.8,0,19.65,4.9a15.509,15.509,0,0,1,6.85,13.3,17.069,17.069,0,0,1-2.45,9.1A17.16,17.16,0,0,1-254.5,207.6Zm-35.3-21.4v16.5h16.1q6,0,9.1-2.1a7.005,7.005,0,0,0,3.1-6.2,6.881,6.881,0,0,0-3.1-6.15q-3.1-2.05-9.1-2.05Zm18.9,45.6q6.4,0,9.65-2.1a7.192,7.192,0,0,0,3.25-6.5q0-8.7-12.9-8.7h-18.9v17.3Zm41.5-57.8h16.2v70h-16.2Zm58.3,42.5-9.4,9.8V244h-16.1V174h16.1v32.7l31-32.7h18l-29,31.2,30.7,38.8h-18.9ZM-68.4,231v13h-54.2V174h52.9v13h-36.8v15.2H-74v12.6h-32.5V231Zm35.9,14.2a57.273,57.273,0,0,1-16.05-2.25A37.643,37.643,0,0,1-61,237.1l5.5-12.2a37.322,37.322,0,0,0,10.7,5.3,40.19,40.19,0,0,0,12.4,2q6.9,0,10.2-2.05a6.193,6.193,0,0,0,3.3-5.45,5.209,5.209,0,0,0-1.95-4.15,14.783,14.783,0,0,0-5-2.65q-3.05-1-8.25-2.2a114.041,114.041,0,0,1-13.1-3.8,21.284,21.284,0,0,1-8.75-6.1q-3.65-4.2-3.65-11.2a19.483,19.483,0,0,1,3.3-11.05,22.2,22.2,0,0,1,9.95-7.85,40.6,40.6,0,0,1,16.25-2.9A53.807,53.807,0,0,1-17,174.4,38.7,38.7,0,0,1-5.8,179l-5,12.3a39.031,39.031,0,0,0-19.4-5.5q-6.8,0-10.05,2.2a6.715,6.715,0,0,0-3.25,5.8q0,3.6,3.75,5.35A58.877,58.877,0,0,0-28.3,202.6a114.045,114.045,0,0,1,13.1,3.8,21.693,21.693,0,0,1,8.75,6q3.65,4.1,3.65,11.1a19.114,19.114,0,0,1-3.35,10.95A22.507,22.507,0,0,1-16.2,242.3,40.97,40.97,0,0,1-32.5,245.2Z" transform="translate(320.9 71.2)" fill="#f8f8f8"/>
  </svg>
