<svg xmlns="http://www.w3.org/2000/svg" viewBox="0 0 1800 645.06"><defs><style>.cls-1{opacity:0.7;}.cls-2{fill:#fff;}.cls-3{opacity:0.6;}.cls-4{opacity:0.8;}</style></defs><title>Code&amp;amp;Context White Alpha</title><g id="Ebene_2" data-name="Ebene 2"><g id="Keyvisual"><g id="Code_Context" data-name="Code&amp;Context"><g id="Context"><g class="cls-1"><polyline class="cls-2" points="1350.87 413.79 1642.2 581.99 1654.34 574.98 1363.01 406.78"/><polyline class="cls-2" points="1314.45 434.81 1605.78 603.01 1617.92 596 1326.59 427.8"/><polyline class="cls-2" points="1278.04 455.84 1569.36 624.04 1581.5 617.03 1290.17 448.83"/><polyline class="cls-2" points="1241.62 476.86 1532.95 645.06 1545.09 638.05 1253.76 469.85"/><polyline class="cls-2" points="1496.53 329.69 1787.86 497.89 1800 490.88 1508.67 322.68"/><polyline class="cls-2" points="1460.12 350.71 1751.44 518.91 1763.58 511.9 1472.26 343.7"/><polyline class="cls-2" points="1423.7 371.74 1715.03 539.94 1727.17 532.93 1435.84 364.73"/><polyline class="cls-2" points="1387.28 392.76 1678.61 560.96 1690.75 553.95 1399.42 385.75"/></g><g class="cls-3"><polyline class="cls-2" points="1787.86 175.21 1787.86 497.89 1800 490.88 1800 168.2"/><polyline class="cls-2" points="1751.44 196.23 1751.44 518.91 1763.58 511.9 1763.58 189.22"/><polyline class="cls-2" points="1715.03 217.26 1715.03 539.94 1727.17 532.93 1727.17 210.25"/><polyline class="cls-2" points="1678.61 238.28 1678.61 560.96 1690.75 553.95 1690.75 231.27"/><polyline class="cls-2" points="1642.19 259.31 1642.2 581.99 1654.34 574.98 1654.33 252.3"/><polyline class="cls-2" points="1605.78 280.33 1605.78 603.01 1617.92 596 1617.92 273.32"/><polyline class="cls-2" points="1569.36 301.36 1569.36 624.04 1581.5 617.03 1581.5 294.35"/><polyline class="cls-2" points="1532.95 322.38 1532.95 645.06 1545.09 638.05 1545.09 315.37"/></g><g class="cls-4"><polyline class="cls-2" points="1350.87 91.11 1642.19 259.31 1654.33 252.3 1363.01 84.1"/><polyline class="cls-2" points="1314.45 112.13 1605.78 280.33 1617.92 273.32 1326.59 105.12"/><polyline class="cls-2" points="1278.03 133.16 1569.36 301.36 1581.5 294.35 1290.17 126.15"/><polyline class="cls-2" points="1241.62 154.18 1532.95 322.38 1545.09 315.37 1253.76 147.17"/><polyline class="cls-2" points="1496.53 7.01 1787.86 175.21 1800 168.2 1508.67 0"/><polyline class="cls-2" points="1460.12 28.03 1751.44 196.23 1763.58 189.22 1472.25 21.02"/><polyline class="cls-2" points="1423.7 49.06 1715.03 217.26 1727.17 210.25 1435.84 42.05"/><polyline class="cls-2" points="1387.28 70.08 1678.61 238.28 1690.75 231.27 1399.42 63.08"/></g></g><g id="And"><g class="cls-1"><polyline class="cls-2" points="900 14.02 608.67 182.22 608.67 168.2 900 0"/><polyline class="cls-2" points="900 56.22 608.67 224.41 608.67 210.4 900 42.2"/><polyline class="cls-2" points="900 98.27 608.67 266.46 608.67 252.45 900 84.25"/><polyline class="cls-2" points="900 140.47 608.67 308.66 608.67 294.65 900 126.45"/><polyline class="cls-2" points="900 182.22 608.67 350.41 608.67 336.4 900 168.2"/><polyline class="cls-2" points="900 224.41 608.67 392.61 608.67 378.6 900 210.4"/><polyline class="cls-2" points="900 266.46 608.67 434.66 608.67 420.65 900 252.45"/><polyline class="cls-2" points="900 308.66 608.67 476.86 608.67 462.85 900 294.65"/></g><g class="cls-3"><polyline class="cls-2" points="900 14.02 1191.33 182.22 1191.33 168.2 900 0"/><polyline class="cls-2" points="900 56.22 1191.33 224.41 1191.33 210.4 900 42.2"/><polyline class="cls-2" points="900 98.27 1191.33 266.46 1191.33 252.45 900 84.25"/><polyline class="cls-2" points="900 140.47 1191.33 308.66 1191.33 294.65 900 126.45"/><polyline class="cls-2" points="900 182.22 1191.33 350.41 1191.33 336.4 900 168.2"/><polyline class="cls-2" points="900 224.41 1191.33 392.61 1191.33 378.6 900 210.4"/><polyline class="cls-2" points="900 266.46 1191.33 434.66 1191.33 420.65 900 252.45"/><polyline class="cls-2" points="900 308.66 1191.33 476.86 1191.33 462.85 900 294.65"/></g><g class="cls-4"><polyline class="cls-2" points="1191.33 182.22 900 350.41 900 336.4 1191.33 168.2"/><polyline class="cls-2" points="1191.33 224.41 900 392.61 900 378.6 1191.33 210.4"/><polyline class="cls-2" points="1191.33 266.46 900 434.66 900 420.65 1191.33 252.45"/><polyline class="cls-2" points="1191.33 308.66 900 476.86 900 462.85 1191.33 294.65"/><polyline class="cls-2" points="1191.33 350.41 900 518.61 900 504.6 1191.33 336.4"/><polyline class="cls-2" points="1191.33 392.61 900 560.81 900 546.8 1191.33 378.6"/><polyline class="cls-2" points="1191.33 434.66 900 602.86 900 588.85 1191.33 420.65"/><polyline class="cls-2" points="1191.33 476.86 900 645.06 900 631.04 1191.33 462.85"/></g></g><g id="Code"><g class="cls-4"><polyline class="cls-2" points="449.13 413.79 157.8 581.99 145.66 574.98 436.99 406.78"/><polyline class="cls-2" points="485.55 434.81 194.22 603.01 182.08 596 473.41 427.8"/><polyline class="cls-2" points="521.97 455.84 230.64 624.04 218.5 617.03 509.83 448.83"/><polyline class="cls-2" points="558.38 476.86 267.05 645.06 254.91 638.05 546.24 469.85"/><polyline class="cls-2" points="303.47 329.69 12.14 497.89 0 490.88 291.33 322.68"/><polyline class="cls-2" points="339.88 350.71 48.55 518.91 36.42 511.9 327.75 343.7"/><polyline class="cls-2" points="376.3 371.74 84.97 539.94 72.83 532.93 364.16 364.73"/><polyline class="cls-2" points="412.72 392.76 121.39 560.96 109.25 553.95 400.58 385.75"/></g><g class="cls-3"><polyline class="cls-2" points="12.14 175.21 12.14 497.89 0 490.88 0 168.2"/><polyline class="cls-2" points="48.56 196.23 48.55 518.91 36.42 511.9 36.42 189.22"/><polyline class="cls-2" points="84.97 217.26 84.97 539.94 72.83 532.93 72.83 210.25"/><polyline class="cls-2" points="121.39 238.28 121.39 560.96 109.25 553.95 109.25 231.27"/><polyline class="cls-2" points="157.81 259.31 157.8 581.99 145.66 574.98 145.67 252.3"/><polyline class="cls-2" points="194.22 280.33 194.22 603.01 182.08 596 182.08 273.32"/><polyline class="cls-2" points="230.64 301.36 230.64 624.04 218.5 617.03 218.5 294.35"/><polyline class="cls-2" points="267.05 322.38 267.05 645.06 254.91 638.05 254.91 315.37"/></g><g class="cls-1"><polyline class="cls-2" points="449.13 91.11 157.81 259.31 145.67 252.3 437 84.1"/><polyline class="cls-2" points="485.55 112.13 194.22 280.33 182.08 273.32 473.41 105.12"/><polyline class="cls-2" points="521.97 133.16 230.64 301.36 218.5 294.35 509.83 126.15"/><polyline class="cls-2" points="558.38 154.18 267.05 322.38 254.91 315.37 546.24 147.17"/><polyline class="cls-2" points="303.47 7.01 12.14 175.21 0 168.2 291.33 0"/><polyline class="cls-2" points="339.88 28.03 48.56 196.23 36.42 189.22 327.75 21.02"/><polyline class="cls-2" points="376.3 49.06 84.97 217.26 72.83 210.25 364.16 42.05"/><polyline class="cls-2" points="412.72 70.08 121.39 238.28 109.25 231.27 400.58 63.08"/></g></g></g></g></g></svg>