<svg xmlns="http://www.w3.org/2000/svg" width="510.93" height="317.516" viewBox="0 0 510.93 317.516">
  <g id="black-bird" transform="translate(-1.27 414.703)">
    <path id="Path_1" data-name="Path 1" d="M165.8-409a200.853,200.853,0,0,0-35.2,68.3c-5,17.4-6,25-6,45.2,0,20.7,1.6,30.8,6.9,42.4a30.965,30.965,0,0,1,2.5,6.4c0,1.6-23.8.1-38.2-2.3-28-4.8-62.3-15.2-85.7-26.1-4.6-2.2-8.6-3.7-8.8-3.5-.6.6,7.8,18.1,14.2,29.7C29.7-223.5,45.1-202.7,63-185c32.3,32.1,66.7,50.4,119.1,63.5a163.207,163.207,0,0,1,22.9,7.4c24,11,45,15.9,71.5,16.8,46,1.4,91-10.2,123.3-31.9,37.5-25.2,58.5-61.7,61.7-107.3,1.2-17.5.5-16.4,30.3-46.7l20.4-20.7-4.4-1.2c-2.3-.6-14.6-3.9-27.2-7.3-13.9-3.8-23.2-6.8-23.7-7.6-.4-.8-3-6.2-5.7-12-28-60-103.2-80.3-158.3-42.9-8.3,5.6-19.8,16.7-25.9,24.8-9.2,12.5-17.8,32.7-19.6,46-.6,5-.8,5.2-3.3,4.6-22.3-5.3-45.5-39.8-68.2-101.5-2.8-7.4-5.1-13.5-5.2-13.7A47.578,47.578,0,0,0,165.8-409Zm236.4,71.1A30.242,30.242,0,0,1,425-314.7c3.6,17.5-10.1,34.7-27.8,34.9-7.5.1-12.9-1.5-18-5.2-20.8-15-14.3-47,10.5-52.9C395-339.2,396.2-339.1,402.2-337.9Z" fill="#a0d1a5"/>
    <path id="Path_2" data-name="Path 2" d="M398.8-320.6c.8,6.6-6.5,10.8-12.2,7.1-2.3-1.5-2.4-1.5-3,1.6-2.3,11.6,10,21.2,20.7,16,10.9-5.3,11.5-19.9,1.1-25.8C399.7-325,398.3-324.7,398.8-320.6Z" fill="#a0d1a5"/>
  </g>
</svg>
