<svg xmlns="http://www.w3.org/2000/svg" width="368.613" height="198.1" viewBox="0 0 368.613 198.1">
  <g id="Logo_TH-Koeln_RGB_17pt" transform="translate(0 198)">
    <path id="Path_3" data-name="Path 3" d="M96-173v25h8v-11.8c0-13.4,1-16.2,6-16.2,5.3,0,6,1.8,6,15.6V-148h9v-11.3c0-12.8-1.1-17.9-4.7-21.4-2.1-2.2-3.1-2.5-7.4-2.1-2.8.3-5.8,1.3-6.9,2.3-2,1.8-2,1.7-2-7.8V-198H96Z" fill="#fff"/>
    <path id="Path_4" data-name="Path 4" d="M207-173v25h9v-50h-9Z" fill="#fff"/>
    <path id="Path_5" data-name="Path 5" d="M0-192.5v3.5H12v41h8l.2-20.3.3-20.2,6.3-.3,6.2-.3V-196H0Z" fill="#fff"/>
    <path id="Path_6" data-name="Path 6" d="M37-179.4c-4.7,4.2-6.4,9.4-5.8,17.2.5,6,2.8,9.7,7.9,12.7,3.4,2,10.8,2.5,16.2,1.2,2.3-.6,2.8-1.2,2.5-3.5-.3-2.7-.4-2.7-6.9-2.4-6.3.4-6.7.2-9.2-2.8-4.7-5.5-4-6,7.8-6H60v-4.5c0-10-4.9-15.5-13.6-15.5C41.6-183,40.6-182.6,37-179.4Zm13.4,4.6c3.3,4.6,2.2,5.8-4.9,5.8-7.2,0-8-.9-4.4-5.4C43.7-177.7,48.2-177.9,50.4-174.8Z" fill="#fff"/>
    <path id="Path_7" data-name="Path 7" d="M76-182.3c-7.3,2.8-11.4,9.9-10.8,19,.7,10.5,6.3,15.7,17,15.6,6.9-.1,7.9-.7,7.1-4.5-.5-2.6-.8-2.7-4.7-2.2-3.5.5-4.7.2-7.3-2-8.6-7.2-2-23,8.2-19.8,3.2.9,3.3.8,3.9-2.1.4-2,.2-3.4-.6-3.9C87.3-183.1,78.3-183.1,76-182.3Z" fill="#fff"/>
    <path id="Path_8" data-name="Path 8" d="M133-165.5V-148h9v-12.3c0-10.9.2-12.6,1.9-14.1a5.709,5.709,0,0,1,8.8,1.4c.8,1.6,1.3,6.7,1.3,13.7V-148h8v-13.1c0-14.8-1.2-18.9-6.1-20.9-3.7-1.6-10.4-.7-13,1.6-1.9,1.7-2,1.7-2.6-.4-.4-1.7-1.3-2.2-3.9-2.2H133Z" fill="#fff"/>
    <path id="Path_9" data-name="Path 9" d="M177-181.2c-6.6,3.5-9.8,14.4-6.9,23.3a15.5,15.5,0,0,0,25.7,5.9c7.7-7.7,5.7-25.2-3.4-29.5C188.1-183.5,181.2-183.4,177-181.2Zm10.5,4.8c4.5,1.8,6,13.4,2.5,19.1-2.8,4.7-8.3,4.6-10.7-.2-2.7-5.4-2.1-13.8,1.3-17.6C182.4-177,184.6-177.5,187.5-176.4Z" fill="#fff"/>
    <path id="Path_10" data-name="Path 10" d="M231-181.2c-5.4,2.9-8.2,9.1-7.8,17.4.4,7.2,2,10.3,7.1,14.2,3.9,2.9,12.1,2.8,16.9-.2,10.1-6.3,9.6-26.6-.8-31.6A19.177,19.177,0,0,0,231-181.2Zm11,5.2c4.1,2.2,5.3,13.3,2,18.7-1.5,2.5-2.7,3.3-4.9,3.3-3.7,0-5.8-2-7.1-7.1C229.4-170.8,235.2-179.6,242-176Z" fill="#fff"/>
    <path id="Path_11" data-name="Path 11" d="M266.8-181.3c-8.4,5.2-9.8,21.5-2.6,29,4.2,4.3,8.6,5.1,13.8,2.5l4-1.9v2.9q0,3-3,6c-3.2,3.2-3.1,3.2-13.4,1.6-1.4-.2-2.1.5-2.7,2.4-.9,3.3-.5,3.6,5.5,4.7s13.3-.3,16.4-3.2c4.6-4.2,5.2-7.3,5.2-27.2V-183h-3.5c-2.9,0-3.5.4-3.5,2.1v2l-2.6-2C277.1-183.5,270.6-183.6,266.8-181.3Zm12.7,6.8c2.1,2,2.5,3.4,2.5,8,0,8.1-2,11.5-7.1,11.5-4.4,0-6.4-3.3-6.4-10.7,0-5.9.3-6.7,2.8-8.9C274.8-177.6,276.5-177.6,279.5-174.5Z" fill="#fff"/>
    <path id="Path_12" data-name="Path 12" d="M295-182.6a45.937,45.937,0,0,0,2.1,5.8c1.2,2.9,3.9,10.2,6.1,16.3,3.9,10.8,3.9,11.1,2.3,14.1a13.074,13.074,0,0,1-5,4.9c-3.1,1.7-3.2,2-2.2,5.2,1.2,3.8,2,4,6.3,1.4,7-4.3,11.6-13.9,20.4-42.4l1.8-5.7h-8.5l-2.8,10.7c-1.6,6-3.1,11.4-3.5,12.1-.4.8-2.2-3.8-4.1-10.5l-3.5-11.8-4.7-.3C297.1-183,295-182.9,295-182.6Z" fill="#fff"/>
    <path id="Path_13" data-name="Path 13" d="M144.1-125c-6.8,1.6-11.1,6.6-11.1,13,0,5.5,3,9.2,10.8,13.3,3.8,2,7.3,4.4,7.6,5.3,1.1,2.9.6,6.1-1.2,7.7-2.1,1.9-9.5,2.3-13.6.7-2.8-1-3-.8-4,3.2-.5,2.3-.2,2.7,2.6,3.7a32.981,32.981,0,0,0,8.7,1.1c9.5,0,15.8-4.7,16.7-12.6.8-6.2-2-10.1-10.7-14.9-8.4-4.6-10.6-8-7.5-11.4,2.4-2.6,6.3-3.4,10.6-2.1,3.8,1.1,4.5.7,5.4-3.2.6-2.5.3-2.7-4.5-3.7C148.4-126.1,148.8-126.1,144.1-125Z" fill="#fff"/>
    <path id="Path_14" data-name="Path 14" d="M198.6-124.7a4.062,4.062,0,0,0-1.4,4.2c.2,2.4.8,3.1,3.1,3.3,5,.6,7.5-3.8,4.1-7.2C202.5-126.3,200.9-126.4,198.6-124.7Z" fill="#fff"/>
    <path id="Path_15" data-name="Path 15" d="M14.5-123.8c-.2.7-3.1,10.7-6.5,22.3C4.7-89.9,1.7-79.7,1.4-78.8,1-77.3,1.5-77,4.9-77c3.9,0,4.1-.1,5.1-4.3,2.6-9.8,1.9-9.2,9.6-9.2h6.9l1.9,6.7,2,6.8h8.4L32.9-97.3c-3.3-11.1-6.4-21.9-7-24-1-3.6-1-3.7-6-3.7C16.8-125,14.8-124.5,14.5-123.8Zm8,16.7c1.4,5.1,2.5,9.4,2.5,9.7,0,.2-2.5.4-5.6.4-4.8,0-5.5-.2-5-1.8,1-3.6,3.4-12.8,4.1-15.6.3-1.5.8-2.6,1.1-2.3C19.9-116.5,21.2-112.1,22.5-107.1Z" fill="#fff"/>
    <path id="Path_16" data-name="Path 16" d="M74.3-118.9c-2.9.8-3.3,1.4-3.3,4.4,0,2.8-.4,3.5-2,3.5-1.5,0-2,.7-2,2.5s.5,2.5,1.9,2.5c1.7,0,1.9,1,2.2,12.1.4,11.8.5,12.1,3.2,14.5,2.1,1.8,4,2.4,7.3,2.4,4.2,0,4.4-.1,4.4-3,0-2.3-.5-3-1.9-3C80-83,79-85.5,79-96.1V-106h4c3.6,0,4-.3,4-2.5,0-2.3-.4-2.5-4-2.5H79v-4.5c0-2.5-.3-4.5-.7-4.4A27.649,27.649,0,0,0,74.3-118.9Z" fill="#fff"/>
    <path id="Path_17" data-name="Path 17" d="M54.8-109c-3.6,3.6-3.8,3.7-3.8.5,0-2.1-.5-2.5-3-2.5H45v34h8V-88.3c0-12.6.9-15.1,6-16.2,2.6-.6,3-1.1,3-4.1,0-2.8-.4-3.4-2.1-3.4C58.8-112,56.5-110.7,54.8-109Z" fill="#fff"/>
    <path id="Path_18" data-name="Path 18" d="M97.1-110.7a12.187,12.187,0,0,0-3.7,3.8c-3.2,5.7-.4,11.5,7.2,15,5.4,2.6,6.6,5.5,3.3,8.1a5.18,5.18,0,0,1-4.8,1.3c-1.4-.3-3.6-.9-4.7-1.1-1.7-.4-2.2,0-2.6,2.1-.5,2.1-.1,2.8,1.9,3.6,3.7,1.4,11,1.1,14.3-.6,3.7-1.9,5-4.3,5-9.3,0-4.4-2-6.7-8.6-10-5.2-2.7-6.3-5.1-3.3-7.5,2.1-1.7,4-1.7,8.2-.1,1,.3,1.7-.3,2.1-2.2.4-1.4.4-2.9.1-3.2C110.2-112.1,99.4-112,97.1-110.7Z" fill="#fff"/>
    <path id="Path_19" data-name="Path 19" d="M174.6-109.7c-5.2,2.9-8.1,8.6-8.1,15.7,0,10.9,5.9,17,16.5,17,6.8,0,8.5-1,7.7-4.2-.6-2.2-1.2-2.4-5.8-2.4-4.4.1-5.4-.3-7.5-2.7-3.4-4-3.4-12.4,0-16.4,2.1-2.4,3.2-2.8,7.6-2.8s5.2-.3,5.6-2.2c.9-3.5-.3-4.3-6.4-4.3A17.979,17.979,0,0,0,174.6-109.7Z" fill="#fff"/>
    <path id="Path_20" data-name="Path 20" d="M197-94.5V-77h8v-35h-8Z" fill="#fff"/>
    <path id="Path_21" data-name="Path 21" d="M221.4-111c-5.7,2.3-10.1,11.9-9,19.9,1.3,9.3,7,14.1,16.9,14.1,7.8,0,10.6-1.2,10-4.3-.5-2.4-.7-2.4-6.7-2-5.5.5-6.5.3-8.8-1.8a12.3,12.3,0,0,1-3.3-4.7c-.6-2.2-.6-2.2,9.9-2.2,11.7,0,11.2.3,10.6-7-.5-7.9-5.7-13-12.9-12.9A22.5,22.5,0,0,0,221.4-111Zm10.3,6.4a8.971,8.971,0,0,1,1.8,3.8l.7,2.8H227c-6.9,0-7.1-.1-6.5-2.3,1-3.5,5.3-6.9,7.8-6.1A8.488,8.488,0,0,1,231.7-104.6Z" fill="#fff"/>
    <path id="Path_22" data-name="Path 22" d="M248-94.5V-77h8V-88c0-7.8.4-11.9,1.5-13.9,2.5-5,8.6-4.7,10.5.5.6,1.4,1,7.5,1,13.5V-77h8V-89.5c0-13.6-1.1-18-5.1-20.9-3.7-2.5-10.2-2.1-13.8,1l-3.1,2.6v-2.6c0-2.3-.4-2.6-3.5-2.6H248Z" fill="#fff"/>
    <path id="Path_23" data-name="Path 23" d="M293.5-110.6c-6.3,2.8-9.5,8.4-9.5,16.9,0,10.5,6,16.7,16.1,16.7,7.7,0,8.6-.5,8.1-4-.4-2.8-.6-2.9-4.7-2.4-3.7.6-4.6.3-7.6-2.4-3.1-2.8-3.4-3.5-3.4-8.7s.3-5.9,3.4-8.7c3-2.7,3.9-3,7.6-2.5,4,.6,4.3.5,4.8-2.1.3-1.5,0-3-.6-3.4C305.8-112.4,296.7-112,293.5-110.6Z" fill="#fff"/>
    <path id="Path_24" data-name="Path 24" d="M321.4-111c-5.7,2.3-10.1,11.9-9,19.9C313.7-81.7,319.3-77,329-77c8.3,0,10-.7,10-4.1v-2.8l-6.3.6c-5.7.5-6.6.3-8.9-1.8a12.3,12.3,0,0,1-3.3-4.7c-.6-2.2-.6-2.2,9.9-2.2H341v-5c0-9.3-5-15-12.9-14.9A22.5,22.5,0,0,0,321.4-111Zm8.7,5c.9,0,3.9,5.9,3.9,7.5,0,.3-3.2.5-7.1.5-6.8,0-7-.1-6.4-2.3.9-3,5.4-7,7.2-6.3A9.274,9.274,0,0,0,330.1-106Z" fill="#fff"/>
    <path id="Path_25" data-name="Path 25" d="M351.8-110.4c-3.4,1.8-4.8,4.3-4.8,8.6.1,4.2,1.4,5.9,7.4,9.5,6.1,3.5,7.5,5.5,5.6,7.8-1.2,1.4-2.5,1.6-7.1,1.1-5.3-.5-5.7-.4-6.3,1.7-.9,3.6,1.9,4.9,9.6,4.5,7.6-.4,11.1-2.7,12.2-7.9,1-5.2-1.5-9.2-7.8-12.5-4.8-2.5-5.6-3.3-5.4-5.4.3-2.3.7-2.5,5.5-2.5,4.7.1,5.2-.2,5.8-2.4.4-1.5.1-2.7-.7-3.2C363.7-112.5,354.7-112,351.8-110.4Z" fill="#fff"/>
    <path id="Path_26" data-name="Path 26" d="M185-25.2V.1l5.3-.3,5.2-.3.3-22c.2-12.1,0-23.4-.3-25.2-.6-3.1-.7-3.2-5.5-3l-5,.2Z" fill="#fff"/>
    <path id="Path_27" data-name="Path 27" d="M149.6-48.4A4.925,4.925,0,0,0,153-40a5.539,5.539,0,0,0,5-4.9c0-2.2-3-5.1-5.3-5.1A5.185,5.185,0,0,0,149.6-48.4Z" fill="#fff"/>
    <path id="Path_28" data-name="Path 28" d="M163.7-48.2c-2.2,2.4-2.1,4.5.1,6.5,4.9,4.5,11.3-2,6.6-6.7C168.3-50.5,165.7-50.4,163.7-48.2Z" fill="#fff"/>
    <path id="Path_29" data-name="Path 29" d="M.7-48.4C.3-48,0-45.7,0-43.3V-39H12l.2,19.2L12.5-.5l4.8.1L22-.2V-39H34v-9.8l-16.3-.1C8.7-49,1.1-48.8.7-48.4Z" fill="#fff"/>
    <path id="Path_30" data-name="Path 30" d="M41.4-47.6c-.2.6-.3,11.5-.2,24.1l.3,23,5.3.1L52-.2V-19.8l6.5-.4a56.562,56.562,0,0,1,7.5,0c.6.2,1,4.6,1,10.1V-.3l4.3.1a14.693,14.693,0,0,0,5.5-.6c.9-.7,1.2-6.2,1-24.3l-.3-23.4H72.3L67-48.6V-30H52V-48.9l-5.1.1C44-48.8,41.7-48.3,41.4-47.6Z" fill="#fff"/>
    <path id="Path_31" data-name="Path 31" d="M104.5-47.8c-.3.7-.4,11.7-.3,24.3l.3,23h10l.5-8.7c.3-4.8,1-9.2,1.6-9.9,1.2-1.1,2.6.8,9,13.1l2.9,5.5,5.8.2c3.1,0,5.7-.1,5.7-.5,0-.3-3.1-6.3-7-13.3-3.8-7-7-13.1-7-13.6s2.9-5.1,6.5-10.2,6.3-9.6,6-10.2c-.4-.5-3-.9-6-.9h-5.3l-5.9,10.1-5.8,10-.5-9.8-.5-9.8-4.8-.3C106.5-49,104.8-48.7,104.5-47.8Z" fill="#fff"/>
    <path id="Path_32" data-name="Path 32" d="M152.3-34.1c-5.7,2.6-8.7,8.4-8.7,16.6-.1,7.1,2.2,11.8,7.5,15.3,2.9,2,4.4,2.3,9.6,2,7.1-.4,10.6-2.5,13.8-7.9,2.6-4.4,2.7-15,.2-19.6C170.7-35.1,160.6-38,152.3-34.1Zm12.3,9.6c1.8,4.5,1.8,9.8-.1,13.5-1.2,2.3-2.2,3-4.6,3-2.5,0-3.2-.6-4.6-3.7-3-7.3,0-16.3,5.4-16.3C162.5-28,163.5-27.1,164.6-24.5Z" fill="#fff"/>
    <path id="Path_33" data-name="Path 33" d="M218.3-34c-2.7,1.6-3.3,1.7-3.3.5,0-1.1-1.2-1.5-5-1.5h-5l.3,17.2.2,17.3,5.3.3,5.2.3v-12c0-13,.8-15.1,5.5-15.1,3.7,0,4.5,2.8,4.5,15.5V.1l5.3-.3,5.2-.3.3-10c.4-14.3-.3-18.2-4.3-22.2C228.6-36.6,223.4-37.1,218.3-34Z" fill="#fff"/>
  </g>
</svg>
