<svg xmlns="http://www.w3.org/2000/svg" width="671.382" height="42.93" viewBox="0 0 671.382 42.93">
  <path id="Path_2" data-name="Path 2" d="M40.824-37.8,24.462,0h-8.64L-.486-37.8h9.45l11.5,27,11.664-27ZM43.9-29.052h8.424V0H43.9Zm4.212-4.05a5.343,5.343,0,0,1-3.78-1.35A4.378,4.378,0,0,1,42.876-37.8a4.378,4.378,0,0,1,1.458-3.348,5.343,5.343,0,0,1,3.78-1.35,5.477,5.477,0,0,1,3.78,1.3,4.155,4.155,0,0,1,1.458,3.24,4.585,4.585,0,0,1-1.458,3.483A5.281,5.281,0,0,1,48.114-33.1Zm40.5,18.684q0,.162-.162,2.268H66.474a6.845,6.845,0,0,0,2.808,4.266A9.3,9.3,0,0,0,74.79-6.318a11.153,11.153,0,0,0,4.023-.675A9.744,9.744,0,0,0,82.08-9.126l4.482,4.86q-4.1,4.7-11.988,4.7A18.964,18.964,0,0,1,65.88-1.485,14.053,14.053,0,0,1,60.048-6.8,14.656,14.656,0,0,1,58-14.526a14.846,14.846,0,0,1,2.025-7.7,14.187,14.187,0,0,1,5.562-5.346,16.331,16.331,0,0,1,7.911-1.917,16.2,16.2,0,0,1,7.722,1.836,13.4,13.4,0,0,1,5.427,5.265A15.7,15.7,0,0,1,88.614-14.418ZM73.548-23.112a7.255,7.255,0,0,0-4.806,1.62,6.9,6.9,0,0,0-2.376,4.428h14.31a6.965,6.965,0,0,0-2.376-4.4A7.1,7.1,0,0,0,73.548-23.112Zm66.8-5.94L129.816,0h-8.1l-6.534-18.036L108.432,0h-8.1L89.856-29.052h7.938L104.652-9.4l7.128-19.656h7.128L125.82-9.4l7.074-19.656ZM178.308-1.4a8.659,8.659,0,0,1-3.051,1.377,15.426,15.426,0,0,1-3.807.459q-5.184,0-8.019-2.646T160.6-9.99V-21.924h-4.482V-28.4H160.6v-7.074h8.424V-28.4h7.236v6.48H169.02V-10.1a3.966,3.966,0,0,0,.945,2.835,3.5,3.5,0,0,0,2.673,1,5.414,5.414,0,0,0,3.4-1.08Zm22.41-28.08a11.956,11.956,0,0,1,8.721,3.24q3.321,3.24,3.321,9.612V0h-8.424V-15.336a7.573,7.573,0,0,0-1.512-5.157,5.545,5.545,0,0,0-4.374-1.7,6.7,6.7,0,0,0-5.076,1.971q-1.89,1.971-1.89,5.859V0H183.06V-40.068h8.424v14.04a11.206,11.206,0,0,1,4.05-2.565A14.651,14.651,0,0,1,200.718-29.484Zm48.438,15.066q0,.162-.162,2.268H227.016a6.845,6.845,0,0,0,2.808,4.266,9.3,9.3,0,0,0,5.508,1.566,11.153,11.153,0,0,0,4.023-.675,9.744,9.744,0,0,0,3.267-2.133l4.482,4.86q-4.1,4.7-11.988,4.7a18.964,18.964,0,0,1-8.694-1.917A14.053,14.053,0,0,1,220.59-6.8a14.656,14.656,0,0,1-2.052-7.722,14.846,14.846,0,0,1,2.025-7.7,14.186,14.186,0,0,1,5.562-5.346,16.33,16.33,0,0,1,7.911-1.917,16.2,16.2,0,0,1,7.722,1.836,13.4,13.4,0,0,1,5.427,5.265A15.7,15.7,0,0,1,249.156-14.418ZM234.09-23.112a7.255,7.255,0,0,0-4.806,1.62,6.9,6.9,0,0,0-2.376,4.428h14.31a6.965,6.965,0,0,0-2.376-4.4A7.1,7.1,0,0,0,234.09-23.112Zm35.964-5.94h8.424V0h-8.424Zm4.212-4.05a5.343,5.343,0,0,1-3.78-1.35,4.378,4.378,0,0,1-1.458-3.348,4.378,4.378,0,0,1,1.458-3.348,5.343,5.343,0,0,1,3.78-1.35,5.477,5.477,0,0,1,3.78,1.3,4.155,4.155,0,0,1,1.458,3.24,4.585,4.585,0,0,1-1.458,3.483A5.281,5.281,0,0,1,274.266-33.1Zm29.7,3.618a11.956,11.956,0,0,1,8.721,3.24q3.321,3.24,3.321,9.612V0h-8.424V-15.336a7.573,7.573,0,0,0-1.512-5.157,5.545,5.545,0,0,0-4.374-1.7,6.7,6.7,0,0,0-5.076,1.971q-1.89,1.971-1.89,5.859V0h-8.424V-29.052h8.046v3.4a11.171,11.171,0,0,1,4.158-2.835A14.487,14.487,0,0,1,303.966-29.484ZM333.4.432a28.221,28.221,0,0,1-7.074-.891A18.482,18.482,0,0,1,320.814-2.7l2.808-6.048a17.673,17.673,0,0,0,4.7,2.025,19.69,19.69,0,0,0,5.4.783q5.346,0,5.346-2.646a1.873,1.873,0,0,0-1.458-1.782,21.6,21.6,0,0,0-4.482-.918,43.238,43.238,0,0,1-5.886-1.242,9.132,9.132,0,0,1-4.023-2.484,7.063,7.063,0,0,1-1.7-5.076,7.952,7.952,0,0,1,1.593-4.887,10.252,10.252,0,0,1,4.644-3.321,19.834,19.834,0,0,1,7.209-1.188,28.293,28.293,0,0,1,6.129.675,17.132,17.132,0,0,1,5.049,1.863l-2.808,5.994a16.764,16.764,0,0,0-8.37-2.16,8.516,8.516,0,0,0-4.05.756,2.223,2.223,0,0,0-1.35,1.944,1.93,1.93,0,0,0,1.458,1.89,25.811,25.811,0,0,0,4.644,1.026,49.71,49.71,0,0,1,5.832,1.269,8.761,8.761,0,0,1,3.942,2.457A6.972,6.972,0,0,1,347.112-8.8,7.672,7.672,0,0,1,345.492-4a10.341,10.341,0,0,1-4.725,3.267A21.051,21.051,0,0,1,333.4.432ZM371.034-1.4a8.659,8.659,0,0,1-3.051,1.377,15.426,15.426,0,0,1-3.807.459q-5.184,0-8.019-2.646T353.322-9.99V-21.924H348.84V-28.4h4.482v-7.074h8.424V-28.4h7.236v6.48h-7.236V-10.1a3.966,3.966,0,0,0,.945,2.835,3.5,3.5,0,0,0,2.673,1,5.414,5.414,0,0,0,3.4-1.08Zm12.8-23.814a9.368,9.368,0,0,1,4.077-3.186,15.132,15.132,0,0,1,5.913-1.08v7.776q-1.4-.108-1.89-.108a7.722,7.722,0,0,0-5.67,2.025q-2.052,2.025-2.052,6.075V0h-8.424V-29.052h8.046Zm44.5-3.834V0h-7.992V-3.456a11.172,11.172,0,0,1-4,2.889,12.571,12.571,0,0,1-5.022,1q-5.724,0-9.072-3.294T398.9-12.636V-29.052h8.424v15.174q0,7.02,5.886,7.02a6.328,6.328,0,0,0,4.86-1.971Q419.9-10.8,419.9-14.688V-29.052ZM450.2.432a17.862,17.862,0,0,1-8.343-1.917A14.355,14.355,0,0,1,436.077-6.8,14.51,14.51,0,0,1,434-14.526a14.51,14.51,0,0,1,2.079-7.722,14.355,14.355,0,0,1,5.778-5.319,17.862,17.862,0,0,1,8.343-1.917,16.165,16.165,0,0,1,8.019,1.917,11.369,11.369,0,0,1,4.995,5.481l-6.534,3.51a7.142,7.142,0,0,0-6.534-4,7.393,7.393,0,0,0-5.454,2.16,7.953,7.953,0,0,0-2.16,5.886,7.953,7.953,0,0,0,2.16,5.886,7.393,7.393,0,0,0,5.454,2.16,7.068,7.068,0,0,0,6.534-4l6.534,3.564a11.6,11.6,0,0,1-4.995,5.4A15.985,15.985,0,0,1,450.2.432ZM487.242-1.4a8.659,8.659,0,0,1-3.051,1.377,15.426,15.426,0,0,1-3.807.459q-5.184,0-8.019-2.646T469.53-9.99V-21.924h-4.482V-28.4h4.482v-7.074h8.424V-28.4h7.236v6.48h-7.236V-10.1a3.966,3.966,0,0,0,.945,2.835,3.5,3.5,0,0,0,2.673,1,5.414,5.414,0,0,0,3.4-1.08Zm4.752-27.648h8.424V0h-8.424Zm4.212-4.05a5.343,5.343,0,0,1-3.78-1.35,4.378,4.378,0,0,1-1.458-3.348,4.378,4.378,0,0,1,1.458-3.348,5.343,5.343,0,0,1,3.78-1.35,5.477,5.477,0,0,1,3.78,1.3,4.155,4.155,0,0,1,1.458,3.24,4.585,4.585,0,0,1-1.458,3.483A5.281,5.281,0,0,1,496.206-33.1ZM522.072.432a17.42,17.42,0,0,1-8.235-1.917,14.251,14.251,0,0,1-5.7-5.319,14.656,14.656,0,0,1-2.052-7.722,14.655,14.655,0,0,1,2.052-7.722,14.251,14.251,0,0,1,5.7-5.319,17.42,17.42,0,0,1,8.235-1.917,17.26,17.26,0,0,1,8.208,1.917,14.3,14.3,0,0,1,5.67,5.319A14.656,14.656,0,0,1,538-14.526,14.656,14.656,0,0,1,535.95-6.8a14.3,14.3,0,0,1-5.67,5.319A17.26,17.26,0,0,1,522.072.432Zm0-6.912a7.016,7.016,0,0,0,5.319-2.187,8.153,8.153,0,0,0,2.079-5.859,8.153,8.153,0,0,0-2.079-5.859,7.016,7.016,0,0,0-5.319-2.187,7.1,7.1,0,0,0-5.346,2.187,8.091,8.091,0,0,0-2.106,5.859,8.091,8.091,0,0,0,2.106,5.859A7.1,7.1,0,0,0,522.072-6.48Zm39.2-23A11.956,11.956,0,0,1,570-26.244q3.321,3.24,3.321,9.612V0h-8.424V-15.336a7.573,7.573,0,0,0-1.512-5.157,5.545,5.545,0,0,0-4.374-1.7,6.7,6.7,0,0,0-5.076,1.971q-1.89,1.971-1.89,5.859V0h-8.424V-29.052h8.046v3.4a11.171,11.171,0,0,1,4.158-2.835A14.487,14.487,0,0,1,561.276-29.484ZM590.706.432a28.221,28.221,0,0,1-7.074-.891A18.482,18.482,0,0,1,578.124-2.7l2.808-6.048a17.672,17.672,0,0,0,4.7,2.025,19.69,19.69,0,0,0,5.4.783q5.346,0,5.346-2.646a1.873,1.873,0,0,0-1.458-1.782,21.6,21.6,0,0,0-4.482-.918,43.239,43.239,0,0,1-5.886-1.242,9.132,9.132,0,0,1-4.023-2.484,7.063,7.063,0,0,1-1.7-5.076,7.951,7.951,0,0,1,1.593-4.887,10.253,10.253,0,0,1,4.644-3.321,19.834,19.834,0,0,1,7.209-1.188,28.293,28.293,0,0,1,6.129.675,17.131,17.131,0,0,1,5.049,1.863l-2.808,5.994a16.764,16.764,0,0,0-8.37-2.16,8.516,8.516,0,0,0-4.05.756,2.223,2.223,0,0,0-1.35,1.944,1.93,1.93,0,0,0,1.458,1.89,25.811,25.811,0,0,0,4.644,1.026,49.711,49.711,0,0,1,5.832,1.269,8.762,8.762,0,0,1,3.942,2.457A6.972,6.972,0,0,1,604.422-8.8,7.672,7.672,0,0,1,602.8-4a10.341,10.341,0,0,1-4.725,3.267A21.051,21.051,0,0,1,590.706.432Zm33.1-19.008H639.09v6.75H623.808ZM670.9-22.41v7.02l-25.7,9.774v-6.75L663.174-18.9l-17.982-6.588v-6.7Z" transform="translate(0.486 42.498)" fill="#a0d1a5"/>
</svg>
